<?xml version="1.0" encoding="utf-8"?>
<!-- Generator: Adobe Illustrator 28.3.0, SVG Export Plug-In . SVG Version: 6.00 Build 0)  -->
<svg version="1.1" id="Layer_1" xmlns="http://www.w3.org/2000/svg" xmlns:xlink="http://www.w3.org/1999/xlink" x="0px" y="0px"
	 viewBox="0 0 1117.2 1117.4" style="enable-background:new 0 0 1117.2 1117.4;" xml:space="preserve">
<path d="M1060.7,491.7c-0.4,53.1-7.6,105.2-21.6,156.4c-11.7,42.7-27.6,83.8-47.7,123.3c-25.9,50.9-57.9,97.6-96.3,139.9
	c-28.7,31.6-60.3,60-95.1,84.8c-42.1,30-87.4,53.8-136.4,70.3c-30.9,10.4-62.5,17.6-94.9,21.1c-7.6,0.8-15.3,1-23,1.7
	c-10.8,1.1-21.7,0.9-32.6,1.1c-10.3,0.1-20.4-1.1-30.6-2.3c-16.4-2-32.6-4.6-48.7-8.4c-45.3-10.9-87.2-29.4-125.4-56.1
	c-14.1-9.8-27.4-20.5-40-32.1c-1.4-1.3-2.8-2.7-4.3-3.8c-11.5-8.6-21.4-18.8-30.4-29.8c-7.1-8.6-14.6-17-22-25.3
	c-10.5-11.9-19.8-24.7-28.5-37.9c-2.5-3.7-4.7-7.6-6.9-11.5c-6.1-10.9-12-21.8-18.1-32.8c-2.9-5.2-5.7-10.4-8.7-15.5
	c-0.9-1.5-1.9-3-2.9-4.4c-22.8-31.4-40.9-65.3-54.8-101.4c-15.5-40.2-25.6-81.7-30.9-124.5c-5.4-43.4-5.8-86.8-1.5-130.2
	c3.4-34.6,10.1-68.6,19.5-102.1c7.4-26.4,16.6-52.1,27.7-77.2c21.6-48.7,49.4-93.6,84.6-133.7c24.3-27.7,51.4-52.1,81.9-72.8
	c31.6-21.4,65.6-38,102.3-48.6c29.9-8.6,60.3-13,91.4-12.6c29.8,0.4,58.9,5.1,87.3,14.4c8.8,2.9,17.4,6.3,26.1,9.6
	c2.6,1,5.1,1.4,7.9,0.9c15.2-2.5,30.5-3.9,45.8-4.8c15.2-0.9,30.4-0.7,45.6,0.3c10.9,0.7,21.7,1.5,32.5,3.2
	c13.8,2.1,27.3,5.2,40.8,8.6c12.1,3,23.9,7.2,35.8,10.9c6.8,2.1,13.5,5.1,20.1,7.9c8.1,3.5,16,7.2,24,10.9
	c19.7,9.1,38,20.4,55.2,33.6c13.8,10.6,27.5,21.4,40.2,33.4c22.9,21.8,42.9,46.1,60,72.7c21,32.6,37,67.5,48.8,104.5
	c12.6,39.7,20,80.3,22.6,121.9C1060,467.4,1060.2,479.6,1060.7,491.7z M347,962.8c0.7,1.5,2.1,1.7,3.2,2.1c8.5,2.9,16.9,6,25.4,8.6
	c24,7.4,48.5,11.5,73.6,12.1c26.5,0.6,52.7-2.4,78.5-8.4c34-7.9,66.3-20.3,97.3-36.2c25.8-13.2,50.4-28.5,73.8-45.6
	c12.2-8.9,24.1-18,35.2-28.1c24.3-22.1,46.1-46.6,66-72.7c24.4-32,45.3-66.2,62.8-102.5c17.8-36.9,31.7-75.1,41.4-114.9
	c8.8-36,14-72.5,14.9-109.6c1-43-3.5-85.3-15.3-126.7c-8.1-28.4-19.5-55.5-34.3-81.1c-7.8-13.5-16.6-26.2-26.1-38.5
	c-20.6-26.8-44.2-50.4-71.4-70.5c-28.4-20.9-60-34-94.6-40.1c-1.2-0.2-2.4-0.2-4.1-0.3c0.5,1,0.7,1.7,1.1,2.1
	c1.2,1.3,2.5,2.4,3.8,3.7c12.8,12.6,25.5,25.1,35.8,39.9c8.2,11.8,14.5,24.5,18.2,38.4c1,3.9,1.4,7.9,1.2,11.9
	c-0.5,8.4-7.8,13.5-15.9,11.1c-2.6-0.8-5-2.2-7-4.1c-3.7-3.3-7.4-6.6-10.9-10.1c-9.6-9.4-20-18-30.8-25.9
	c-15.8-11.6-33.1-19.9-52-25c-25.5-6.8-51.2-6.9-77.1-2.3c-42.1,7.5-89.8,32.3-114.3,54.7c-19.3,17.6-37.8,35.9-53.5,56.9
	c-7.5,10-14.6,20.2-20.9,31c-7.2,12.5-13.4,25.5-19.2,38.6c-13,29.4-23.9,59.6-32.4,90.7c-5,18.5-9,37.3-12,56.3
	c-3.8,24.7-6.4,49.5-7.5,74.4c-1.5,33.3-0.3,66.5,5.3,99.5c3.3,19.6,7.6,38.9,15,57.4c0.5,1.3,0.9,2.7,1.4,4.1
	c6.5,18.6,14.5,36.6,24.8,53.4c8,13.1,17,25.5,27.8,36.6c16.9,17.4,36.1,31.6,58.4,41.3c11.5,5,23.4,8.6,35.7,10.8
	c4.9,0.9,5.3,0.6,7.4-3.8c1.1-2.3,2.1-4.7,3.2-7c7-15.4,14-30.9,21-46.3c11.8-26.1,23.7-52.1,34.8-78.5c4.1-9.7,8.2-19.4,12.4-29.1
	c12.7-29.3,25.5-58.7,38.2-88c13.4-30.9,26.9-61.9,40.3-92.8c8.7-20.1,17.5-40.2,26.2-60.3c9-20.8,17.9-41.7,26.9-62.6
	c1.8-4.1,3.6-8.2,5.7-12.2c1.4-2.7,3.1-5.2,4.9-7.7c1.7-2.3,4.1-3.5,6.9-3.9c7-0.9,13.2,4.2,13.9,11.4c0.3,2.4-0.1,4.8-0.8,7.1
	c-1.9,5.9-3.7,11.9-5.8,17.8c-7.6,21.1-15.3,42.1-23.1,63.1c-10.5,28.2-21.2,56.3-31.6,84.5c-12.9,34.8-25.6,69.6-38.2,104.5
	c-11.8,32.6-23.2,65.4-34.8,98.1c-5.8,16.6-11.5,33.2-17.3,49.8c-4.9,14-9.8,28.1-14.9,42c-5.6,15.3-10.3,30.9-16.7,46
	c-0.4,1-0.8,2.1-1.1,3.2c-2.2,6.9-4.3,13.7-6.5,20.6c-2.6,8.1-5.9,15.9-11,22.8c-1.9,2.6-4.2,4.8-6.9,6.6c-11,7.4-23,12.6-35.8,15.9
	c-7.3,1.9-14.7,3.3-22.1,4.5c-23.7,3.8-47.5,4-71.3,1.2c-1.4-0.2-2.9-0.3-4.3-0.3C348,962.3,347.6,962.6,347,962.8z"/>
<path d="M841.4,557.3c-0.1,15.1-4.5,34.7-12.4,53.5c-8.5,20.3-20.2,38.5-35.7,54.1c-12.7,12.9-27.2,23.3-44.2,29.9
	c-13.8,5.4-28.2,7.3-42.9,4.8c-18.8-3.3-33.4-13.1-44.2-28.8c-8.4-12.3-12.8-26.1-14.6-40.7c-2.5-19.9-0.1-39.3,5.7-58.3
	c6.2-20.4,15.8-39.1,28.9-55.9c11.6-14.9,25.3-27.5,41.7-37c12.4-7.1,25.5-11.7,39.8-12.9c6.6-0.6,13.1-0.2,19.6,0.7
	c2.8,0.4,5.6,1.3,8.3,2.3c22.1,8.4,36.4,24.3,44.1,46.3C839.7,526.6,841.5,538.7,841.4,557.3z"/>
</svg>